<svg aria-hidden="true" style="position: absolute; width: 0; height: 0; overflow: hidden;" version="1.1" xmlns="http://www.w3.org/2000/svg" xmlns:xlink="http://www.w3.org/1999/xlink">
<defs>
<symbol id="icon-humidity" viewBox="0 0 32 32">
<path d="M24.85 17.95c-1.2-7.35-10.1-15.95-10.5-16.3-0.2-0.2-0.5-0.2-0.7 0-0.45 0.4-10.65 10.2-10.65 17.85 0 6.050 4.95 11 11 11 1.7 0 3.35-0.4 4.85-1.15 1.050 0.7 2.3 1.15 3.65 1.15 3.6 0 6.5-2.9 6.5-6.5 0-2.75-1.7-5.1-4.15-6.050zM14 29.5c-5.5 0-10-4.5-10-10 0-6.45 8.2-15 10-16.8 1.65 1.65 8.5 8.8 9.8 14.95-0.45-0.1-0.85-0.15-1.3-0.15-3.6 0-6.5 2.9-6.5 6.5 0 1.85 0.75 3.5 2 4.65-1.25 0.55-2.6 0.85-4 0.85zM22.5 29.5c-3.050 0-5.5-2.45-5.5-5.5s2.45-5.5 5.5-5.5 5.5 2.45 5.5 5.5-2.45 5.5-5.5 5.5z"></path>
<path d="M14 27c-4.15 0-7.5-3.35-7.5-7.5 0-0.3-0.2-0.5-0.5-0.5s-0.5 0.2-0.5 0.5c0 4.7 3.8 8.5 8.5 8.5 0.3 0 0.5-0.2 0.5-0.5s-0.2-0.5-0.5-0.5z"></path>
<path d="M24.2 20.050c-0.25-0.1-0.55 0-0.65 0.25l-3 7c-0.1 0.25 0 0.55 0.25 0.65 0.050 0.050 0.15 0.050 0.2 0.050 0.2 0 0.4-0.1 0.45-0.3l3-7c0.1-0.25 0-0.55-0.25-0.65z"></path>
<path d="M22 22c0-0.85-0.65-1.5-1.5-1.5s-1.5 0.65-1.5 1.5 0.65 1.5 1.5 1.5 1.5-0.65 1.5-1.5zM20 22c0-0.3 0.2-0.5 0.5-0.5s0.5 0.2 0.5 0.5-0.2 0.5-0.5 0.5-0.5-0.2-0.5-0.5z"></path>
<path d="M24.5 24.5c-0.85 0-1.5 0.65-1.5 1.5s0.65 1.5 1.5 1.5 1.5-0.65 1.5-1.5-0.65-1.5-1.5-1.5zM24.5 26.5c-0.3 0-0.5-0.2-0.5-0.5s0.2-0.5 0.5-0.5 0.5 0.2 0.5 0.5-0.2 0.5-0.5 0.5z"></path>
</symbol>
<symbol id="icon-wind" viewBox="0 0 32 32">
<path d="M24.667 30.333c-3.12 0-5.667-2.547-5.667-5.667v-0.667c0-0.547 0.453-1 1-1s1 0.453 1 1v0.667c0 2.027 1.64 3.667 3.667 3.667s3.667-1.64 3.667-3.667c0-2.027-1.64-3.667-3.667-3.667h-22c-0.547 0-1-0.453-1-1s0.453-1 1-1h22c3.12 0 5.667 2.547 5.667 5.667s-2.547 5.667-5.667 5.667z"></path>
<path d="M24.667 17h-22c-0.547 0-1-0.453-1-1s0.453-1 1-1h22c2.027 0 3.667-1.64 3.667-3.667s-1.64-3.667-3.667-3.667c-2.027 0-3.667 1.64-3.667 3.667v0.667c0 0.547-0.453 1-1 1s-1-0.453-1-1v-0.667c0-3.12 2.547-5.667 5.667-5.667s5.667 2.547 5.667 5.667c0 3.12-2.547 5.667-5.667 5.667z"></path>
<path d="M12.413 13.001h-9.747c-0.547 0-1-0.453-1-1s0.453-1 1-1h9.747c1.427 0 2.587-1.16 2.587-2.587s-1.16-2.587-2.587-2.587c-1.427 0-2.587 1.16-2.587 2.587v0.507c0 0.547-0.453 1-1 1s-1-0.44-1-1v-0.507c0-2.533 2.053-4.587 4.587-4.587s4.587 2.053 4.587 4.587c0 2.533-2.053 4.587-4.587 4.587z"></path>
</symbol>
</defs>
</svg>
